<?xml version="1.0" encoding="UTF-8"?>
<svg width="54px" height="42px" viewBox="0 0 54 42" version="1.1" xmlns="http://www.w3.org/2000/svg" xmlns:xlink="http://www.w3.org/1999/xlink">
    <!-- Generator: Sketch 59.1 (86144) - https://sketch.com -->
    <title>Shape</title>
    <desc>Created with Sketch.</desc>
    <g id="Page-1" stroke="none" stroke-width="1" fill="none" fill-rule="evenodd">
        <g id="form/media-uploader/add" transform="translate(-14.000000, -23.000000)" fill="#4A494B" fill-rule="nonzero">
            <g id="add-image">
                <g id="take-picture">
                    <g id="icon" transform="translate(14.000000, 23.000000)">
                        <g id="camera-solid">
                            <path d="M38.8984375,7 C40.4609375,7 41.859375,7.96875 42.40625,9.4296875 L43.375,12 L50.25,12 C52.3203125,12 54,13.6796875 54,15.75 L54,38.25 C54,40.3203125 52.3203125,42 50.25,42 L17.75,42 C15.6796875,42 14,40.3203125 14,38.25 L14,26.8604831 C15.9806042,26.3672155 17.4659631,24.6213434 17.5660467,22.5129592 L17.5714286,22.2857143 L17.5714286,17.5714286 L22.2857143,17.5714286 C24.8168573,17.5714286 26.8823519,15.5762435 26.9951485,13.0729229 L27,12.8571429 L27,11.1428571 C27,10.1351634 26.6837672,9.20127404 26.1451358,8.43502317 C26.8414828,7.54532695 27.9214395,7 29.09375,7 L38.8984375,7 Z M34,17.625 C28.828125,17.625 24.625,21.828125 24.625,27 C24.625,32.171875 28.828125,36.375 34,36.375 C39.171875,36.375 43.375,32.171875 43.375,27 C43.375,21.828125 39.171875,17.625 34,17.625 Z M34,20.125 C37.7890625,20.125 40.875,23.2109375 40.875,27 C40.875,30.7890625 37.7890625,33.875 34,33.875 C30.2109375,33.875 27.125,30.7890625 27.125,27 C27.125,23.2109375 30.2109375,20.125 34,20.125 Z M11.1428571,0 L12.8571429,0 C13.7041071,0 14.4078294,0.614568164 14.5465969,1.4219916 L14.5651348,1.56639421 L14.5714286,1.71428571 L14.5714286,9.42857143 L22.2857143,9.42857143 C23.1326786,9.42857143 23.8364009,10.0431396 23.9751683,10.850563 L23.9937062,10.9949656 L24,11.1428571 L24,12.8571429 C24,13.7041071 23.3854318,14.4078294 22.5780084,14.5465969 L22.4336058,14.5651348 L22.2857143,14.5714286 L14.5714286,14.5714286 L14.5714286,22.2857143 C14.5714286,23.1326786 13.9568604,23.8364009 13.149437,23.9751683 L13.0050344,23.9937062 L12.8571429,24 L11.1428571,24 C10.2958929,24 9.59217056,23.3854318 9.45340314,22.5780084 L9.43486519,22.4336058 L9.42857143,22.2857143 L9.42857143,14.5714286 L1.71428571,14.5714286 C0.867321429,14.5714286 0.163599129,13.9568604 0.0248317122,13.149437 L0.00629376419,13.0050344 L0,12.8571429 L0,11.1428571 C0,10.2958929 0.614568164,9.59217056 1.4219916,9.45340314 L1.56639421,9.43486519 L1.71428571,9.42857143 L9.42857143,9.42857143 L9.42857143,1.71428571 C9.42857143,0.867321429 10.0431396,0.163599129 10.850563,0.0248317122 L10.9949656,0.00629376419 L11.1428571,0 L12.8571429,0 L11.1428571,0 Z" id="Shape"></path>
                        </g>
                    </g>
                </g>
            </g>
        </g>
    </g>
</svg>
