<?xml version="1.0" encoding="UTF-8"?>
<svg width="80px" height="80px" viewBox="0 0 80 80" version="1.1" xmlns="http://www.w3.org/2000/svg" xmlns:xlink="http://www.w3.org/1999/xlink">
    <g id="Artboard" stroke="none" stroke-width="1" fill="none" fill-rule="evenodd">
        <path d="M44.8984375,22 C46.4609375,22 47.859375,22.96875 48.40625,24.4296875 L49.375,27 L56.25,27 C58.3203125,27 60,28.6796875 60,30.75 L60,53.25 C60,55.3203125 58.3203125,57 56.25,57 L23.75,57 C21.6796875,57 20,55.3203125 20,53.25 L20,41.8604831 C21.9806042,41.3672155 23.4659631,39.6213434 23.5660467,37.5129592 L23.5714286,37.2857143 L23.5714286,32.5714286 L28.2857143,32.5714286 C30.8168573,32.5714286 32.8823519,30.5762435 32.9951485,28.0729229 L33,27.8571429 L33,26.1428571 C33,25.1351634 32.6837672,24.201274 32.1451358,23.4350232 C32.8414828,22.5453269 33.9214395,22 35.09375,22 L44.8984375,22 Z M40,32.625 C34.828125,32.625 30.625,36.828125 30.625,42 C30.625,47.171875 34.828125,51.375 40,51.375 C45.171875,51.375 49.375,47.171875 49.375,42 C49.375,36.828125 45.171875,32.625 40,32.625 Z M40,35.125 C43.7890625,35.125 46.875,38.2109375 46.875,42 C46.875,45.7890625 43.7890625,48.875 40,48.875 C36.2109375,48.875 33.125,45.7890625 33.125,42 C33.125,38.2109375 36.2109375,35.125 40,35.125 Z M17.1428571,15 L18.8571429,15 C19.7539286,15 20.4901247,15.6889968 20.5651348,16.5663942 L20.5714286,16.7142857 L20.5714286,24.4285714 L28.2857143,24.4285714 C29.1825,24.4285714 29.9186961,25.1175683 29.9937062,25.9949656 L30,26.1428571 L30,27.8571429 C30,28.7539286 29.3110032,29.4901247 28.4336058,29.5651348 L28.2857143,29.5714286 L20.5714286,29.5714286 L20.5714286,37.2857143 C20.5714286,38.1825 19.8824317,38.9186961 19.0050344,38.9937062 L18.8571429,39 L17.1428571,39 C16.2460714,39 15.5098753,38.3110032 15.4348652,37.4336058 L15.4285714,37.2857143 L15.4285714,29.5714286 L7.71428571,29.5714286 C6.8175,29.5714286 6.08130392,28.8824317 6.00629376,28.0050344 L6,27.8571429 L6,26.1428571 C6,25.2460714 6.68899683,24.5098753 7.56639421,24.4348652 L7.71428571,24.4285714 L15.4285714,24.4285714 L15.4285714,16.7142857 C15.4285714,15.8175 16.1175683,15.0813039 16.9949656,15.0062938 L17.1428571,15 L18.8571429,15 L17.1428571,15 Z" id="Shape" fill="#4A494B" fill-rule="nonzero"></path>
    </g>
</svg>