<?xml version="1.0" encoding="UTF-8"?>
<svg width="80px" height="80px" viewBox="0 0 80 80" version="1.1" xmlns="http://www.w3.org/2000/svg" xmlns:xlink="http://www.w3.org/1999/xlink">
    <g id="Artboard" stroke="none" stroke-width="1" fill="none" fill-rule="evenodd">
        <path d="M55.4375,26.0005915 C57.4050391,26.0005915 59,27.5675707 59,29.5005915 L59,50.5005915 C59,52.4336123 57.4050391,54.0005915 55.4375,54.0005915 L24.5625,54.0005915 C22.5949609,54.0005915 21,52.4336123 21,50.5005915 L21.0008216,41.4860661 C22.5267585,40.7055597 23.5714286,39.1178385 23.5714286,37.2863058 L23.5714286,37.2863058 L23.5714286,32.5720201 L28.2857143,32.5720201 C30.8891757,32.5720201 33,30.4611957 33,27.8577343 L33,27.8577343 L33,26.1434486 C33,26.0953485 32.9992795,26.0474165 32.9978487,25.9996629 L55.4375,26.0005915 Z M47.8099588,35.3302702 L37.6777778,45.7741277 L33.5270035,41.4957028 C33.1766382,41.1345626 32.608547,41.1345626 32.2581069,41.4957028 L26.9111111,47.0072143 L26.9111111,50.7064738 L55.6222222,50.7064738 L55.6222222,42.0748682 L49.0788553,35.3302702 C48.72849,34.96913 48.1603988,34.96913 47.8099588,35.3302702 Z" id="Combined-Shape" fill="#4A494B" fill-rule="nonzero"></path>
        <path d="M18.8571429,15 L17.1428571,15 L16.9949656,15.0062938 C16.1175683,15.0813039 15.4285714,15.8175 15.4285714,16.7142857 L15.4285714,24.4285714 L7.71428571,24.4285714 L7.56639421,24.4348652 C6.68899683,24.5098753 6,25.2460714 6,26.1428571 L6,27.8571429 L6.00629376,28.0050344 C6.08130392,28.8824317 6.8175,29.5714286 7.71428571,29.5714286 L15.4285714,29.5714286 L15.4285714,37.2857143 L15.4348652,37.4336058 C15.5098753,38.3110032 16.2460714,39 17.1428571,39 L18.8571429,39 L19.0050344,38.9937062 C19.8824317,38.9186961 20.5714286,38.1825 20.5714286,37.2857143 L20.5714286,29.5714286 L28.2857143,29.5714286 L28.4336058,29.5651348 C29.3110032,29.4901247 30,28.7539286 30,27.8571429 L30,26.1428571 L29.9937062,25.9949656 C29.9186961,25.1175683 29.1825,24.4285714 28.2857143,24.4285714 L20.5714286,24.4285714 L20.5714286,16.7142857 L20.5651348,16.5663942 C20.4901247,15.6889968 19.7539286,15 18.8571429,15 Z" id="Path" fill="#4A494B" fill-rule="nonzero"></path>
    </g>
</svg>