<?xml version="1.0" encoding="UTF-8"?>
<svg width="25px" height="18px" viewBox="0 0 25 18" version="1.1" xmlns="http://www.w3.org/2000/svg" xmlns:xlink="http://www.w3.org/1999/xlink">
    <!-- Generator: Sketch 59.1 (86144) - https://sketch.com -->
    <title>Shape</title>
    <desc>Created with Sketch.</desc>
    <g id="Page-1" stroke="none" stroke-width="1" fill="none" fill-rule="evenodd">
        <g id="form/media-uploader/add" transform="translate(-33.000000, -115.000000)" fill="#4A494B" fill-rule="nonzero">
            <g id="add-image">
                <g id="add-from-gallery" transform="translate(0.000000, 104.000000)">
                    <path d="M44.9230096,14.9983482 L55.49375,15 C56.4360977,15 57.2,15.7834896 57.2,16.75 L57.2,27.25 C57.2,28.2165104 56.4360977,29 55.49375,29 L40.70625,29 C39.7639023,29 39,28.2165104 39,27.25 L39.0006521,22.9232529 C40.1324614,22.6480468 40.9866988,21.6632435 41.0654882,20.4667187 L41.0714286,20.2857143 L41.0714286,19.0714286 L42.2857143,19.0714286 C43.7291853,19.0714286 44.9095889,17.9444869 44.9950461,16.5224824 L45,16.3571429 L45,15.6428571 C45,15.4207847 44.9733268,15.2049387 44.9230096,14.9983482 Z M51.2906146,19.3332893 L46.35,24.4727665 L44.3260156,22.3673311 C44.1551719,22.1896121 43.8781615,22.1896121 43.7072813,22.3673311 L41.1,25.0795749 L41.1,26.9 L55.1,26.9 L55.1,22.6523414 L51.909349,19.3332893 C51.7385052,19.1555702 51.4614948,19.1555702 51.2906146,19.3332893 Z M37.6428571,11 L38.3571429,11 C38.6825391,11 38.9571922,11.2177088 39.0433556,11.5153797 L39.0649067,11.617376 L39.0714286,11.7142857 L39.0714286,14.9285714 L42.2857143,14.9285714 C42.6111105,14.9285714 42.8857637,15.1462803 42.971927,15.4439512 L42.9934781,15.5459474 L43,15.6428571 L43,16.3571429 C43,16.6825391 42.7822912,16.9571922 42.4846203,17.0433556 L42.382624,17.0649067 L42.2857143,17.0714286 L39.0714286,17.0714286 L39.0714286,20.2857143 C39.0714286,20.6111105 38.8537197,20.8857637 38.5560488,20.971927 L38.4540526,20.9934781 L38.3571429,21 L37.6428571,21 C37.3174609,21 37.0428078,20.7822912 36.9566444,20.4846203 L36.9350933,20.382624 L36.9285714,20.2857143 L36.9285714,17.0714286 L33.7142857,17.0714286 C33.3888895,17.0714286 33.1142363,16.8537197 33.028073,16.5560488 L33.0065219,16.4540526 L33,16.3571429 L33,15.6428571 C33,15.3174609 33.2177088,15.0428078 33.5153797,14.9566444 L33.617376,14.9350933 L33.7142857,14.9285714 L36.9285714,14.9285714 L36.9285714,11.7142857 C36.9285714,11.3888895 37.1462803,11.1142363 37.4439512,11.028073 L37.5459474,11.0065219 L37.6428571,11 L38.3571429,11 L37.6428571,11 Z" id="Shape"></path>
                </g>
            </g>
        </g>
    </g>
</svg>
